{
  "accessors": [
    {
      "bufferView": 2,
      "componentType": 5126,
      "count": 12650,
      "max": [
        4.31176233291626,
        4.179052829742432,
        18.113374710083008
      ],
      "min": [
        -4.2778754234313965,
        -3.8294060230255127,
        0.1950230896472931
      ],
      "type": "VEC3"
    },
    {
      "bufferView": 2,
      "byteOffset": 151800,
      "componentType": 5126,
      "count": 12650,
      "max": [
        0.9997347593307495,
        0.9992611408233643,
        0.9999947547912598
      ],
      "min": [
        -0.999678373336792,
        -0.9998800754547119,
        -0.999982476234436
      ],
      "type": "VEC3"
    },
    {
      "bufferView": 1,
      "componentType": 5126,
      "count": 12650,
      "max": [
        0.0,
        0.0
      ],
      "min": [
        0.0,
        0.0
      ],
      "type": "VEC2"
    },
    {
      "bufferView": 0,
      "componentType": 5125,
      "count": 75600,
      "type": "SCALAR"
    },
    {
      "bufferView": 2,
      "byteOffset": 303600,
      "componentType": 5126,
      "count": 912,
      "max": [
        0.7234307527542114,
        0.42143315076828003,
        19.446130752563477
      ],
      "min": [
        -0.5000970959663391,
        -0.3486020565032959,
        -0.029788699001073837
      ],
      "type": "VEC3"
    },
    {
      "bufferView": 2,
      "byteOffset": 314544,
      "componentType": 5126,
      "count": 912,
      "max": [
        0.9970658421516418,
        0.9991612434387207,
        0.49589893221855164
      ],
      "min": [
        -0.9972890019416809,
        -0.9999445676803589,
        -0.49309536814689636
      ],
      "type": "VEC3"
    },
    {
      "bufferView": 1,
      "byteOffset": 101200,
      "componentType": 5126,
      "count": 912,
      "max": [
        0.0,
        0.0
      ],
      "min": [
        0.0,
        0.0
      ],
      "type": "VEC2"
    },
    {
      "bufferView": 0,
      "byteOffset": 302400,
      "componentType": 5125,
      "count": 5376,
      "type": "SCALAR"
    },
    {
      "bufferView": 2,
      "byteOffset": 325488,
      "componentType": 5126,
      "count": 12650,
      "max": [
        4.027484893798828,
        4.5368828773498535,
        18.57329750061035
      ],
      "min": [
        -4.3979172706604,
        -4.443731307983398,
        0.23713505268096924
      ],
      "type": "VEC3"
    },
    {
      "bufferView": 2,
      "byteOffset": 477288,
      "componentType": 5126,
      "count": 12650,
      "max": [
        0.9999179840087891,
        0.9979667067527771,
        0.9999947547912598
      ],
      "min": [
        -0.999924898147583,
        -0.9964307546615601,
        -0.9999867677688599
      ],
      "type": "VEC3"
    },
    {
      "bufferView": 1,
      "byteOffset": 108496,
      "componentType": 5126,
      "count": 12650,
      "max": [
        0.0,
        0.0
      ],
      "min": [
        0.0,
        0.0
      ],
      "type": "VEC2"
    },
    {
      "bufferView": 0,
      "byteOffset": 323904,
      "componentType": 5125,
      "count": 75600,
      "type": "SCALAR"
    },
    {
      "bufferView": 2,
      "byteOffset": 629088,
      "componentType": 5126,
      "count": 912,
      "max": [
        0.5922735929489136,
        0.318368136882782,
        18.406888961791992
      ],
      "min": [
        -1.4587153196334839,
        -0.4886004626750946,
        -0.013755181804299355
      ],
      "type": "VEC3"
    },
    {
      "bufferView": 2,
      "byteOffset": 640032,
      "componentType": 5126,
      "count": 912,
      "max": [
        0.9967969655990601,
        0.9974752068519592,
        0.8835359811782837
      ],
      "min": [
        -0.9966429471969604,
        -0.998426616191864,
        -0.8933600187301636
      ],
      "type": "VEC3"
    },
    {
      "bufferView": 1,
      "byteOffset": 209696,
      "componentType": 5126,
      "count": 912,
      "max": [
        0.0,
        0.0
      ],
      "min": [
        0.0,
        0.0
      ],
      "type": "VEC2"
    },
    {
      "bufferView": 0,
      "byteOffset": 626304,
      "componentType": 5125,
      "count": 5376,
      "type": "SCALAR"
    },
    {
      "bufferView": 2,
      "byteOffset": 650976,
      "componentType": 5126,
      "count": 12650,
      "max": [
        4.06127405166626,
        4.510824680328369,
        17.07735824584961
      ],
      "min": [
        -4.400936126708984,
        -4.443609714508057,
        0.23601320385932922
      ],
      "type": "VEC3"
    },
    {
      "bufferView": 2,
      "byteOffset": 802776,
      "componentType": 5126,
      "count": 12650,
      "max": [
        0.9988095760345459,
        0.9980215430259705,
        0.9999758005142212
      ],
      "min": [
        -0.9989390969276428,
        -0.9992274045944214,
        -0.9999980926513672
      ],
      "type": "VEC3"
    },
    {
      "bufferView": 1,
      "byteOffset": 216992,
      "componentType": 5126,
      "count": 12650,
      "max": [
        0.0,
        0.0
      ],
      "min": [
        0.0,
        0.0
      ],
      "type": "VEC2"
    },
    {
      "bufferView": 0,
      "byteOffset": 647808,
      "componentType": 5125,
      "count": 75600,
      "type": "SCALAR"
    },
    {
      "bufferView": 2,
      "byteOffset": 954576,
      "componentType": 5126,
      "count": 912,
      "max": [
        0.925512969493866,
        0.2999180257320404,
        18.366289138793945
      ],
      "min": [
        -1.5431947708129883,
        -0.844734251499176,
        -0.013754015788435936
      ],
      "type": "VEC3"
    },
    {
      "bufferView": 2,
      "byteOffset": 965520,
      "componentType": 5126,
      "count": 912,
      "max": [
        0.9976202249526978,
        0.999160647392273,
        0.5591655969619751
      ],
      "min": [
        -0.9976719617843628,
        -0.9995412826538086,
        -0.5624960064888
      ],
      "type": "VEC3"
    },
    {
      "bufferView": 1,
      "byteOffset": 318192,
      "componentType": 5126,
      "count": 912,
      "max": [
        0.0,
        0.0
      ],
      "min": [
        0.0,
        0.0
      ],
      "type": "VEC2"
    },
    {
      "bufferView": 0,
      "byteOffset": 950208,
      "componentType": 5125,
      "count": 5376,
      "type": "SCALAR"
    }
  ],
  "asset": {
    "extras": {
      "author": "catafest (https://sketchfab.com/catafest)",
      "license": "CC-BY-4.0 (http://creativecommons.org/licenses/by/4.0/)",
      "source": "https://sketchfab.com/3d-models/hanging-plants-001-154d1a04fbb7482186d19ebd8c984361",
      "title": "hanging plants 001"
    },
    "generator": "Sketchfab-12.67.0",
    "version": "2.0"
  },
  "bufferViews": [
    {
      "buffer": 0,
      "byteLength": 971712,
      "name": "floatBufferViews",
      "target": 34963
    },
    {
      "buffer": 0,
      "byteLength": 325488,
      "byteOffset": 971712,
      "byteStride": 8,
      "name": "floatBufferViews",
      "target": 34962
    },
    {
      "buffer": 0,
      "byteLength": 976464,
      "byteOffset": 1297200,
      "byteStride": 12,
      "name": "floatBufferViews",
      "target": 34962
    }
  ],
  "buffers": [
    {
      "byteLength": 2273664,
      "uri": "scene.bin"
    }
  ],
  "materials": [
    {
      "doubleSided": true,
      "name": "Material.001",
      "pbrMetallicRoughness": {
        "baseColorFactor": [
          0.00421549,
          0.0352179,
          0.0,
          1.0
        ],
        "metallicFactor": 0.0,
        "roughnessFactor": 0.9971643663759971
      }
    }
  ],
  "meshes": [
    {
      "name": "leaf_Material.001_0",
      "primitives": [
        {
          "attributes": {
            "NORMAL": 1,
            "POSITION": 0,
            "TEXCOORD_0": 2
          },
          "indices": 3,
          "material": 0,
          "mode": 4
        }
      ]
    },
    {
      "name": "stern_Material.001_0",
      "primitives": [
        {
          "attributes": {
            "NORMAL": 5,
            "POSITION": 4,
            "TEXCOORD_0": 6
          },
          "indices": 7,
          "material": 0,
          "mode": 4
        }
      ]
    },
    {
      "name": "leaf.001_Material.001_0",
      "primitives": [
        {
          "attributes": {
            "NORMAL": 9,
            "POSITION": 8,
            "TEXCOORD_0": 10
          },
          "indices": 11,
          "material": 0,
          "mode": 4
        }
      ]
    },
    {
      "name": "stern.001_Material.001_0",
      "primitives": [
        {
          "attributes": {
            "NORMAL": 13,
            "POSITION": 12,
            "TEXCOORD_0": 14
          },
          "indices": 15,
          "material": 0,
          "mode": 4
        }
      ]
    },
    {
      "name": "leaf.002_Material.001_0",
      "primitives": [
        {
          "attributes": {
            "NORMAL": 17,
            "POSITION": 16,
            "TEXCOORD_0": 18
          },
          "indices": 19,
          "material": 0,
          "mode": 4
        }
      ]
    },
    {
      "name": "stern.002_Material.001_0",
      "primitives": [
        {
          "attributes": {
            "NORMAL": 21,
            "POSITION": 20,
            "TEXCOORD_0": 22
          },
          "indices": 23,
          "material": 0,
          "mode": 4
        }
      ]
    }
  ],
  "nodes": [
    {
      "children": [
        1
      ],
      "matrix": [
        1.0,
        0.0,
        0.0,
        0.0,
        0.0,
        2.220446049250313e-16,
        -1.0,
        0.0,
        0.0,
        1.0,
        2.220446049250313e-16,
        0.0,
        0.0,
        0.0,
        0.0,
        1.0
      ],
      "name": "Sketchfab_model"
    },
    {
      "children": [
        2
      ],
      "matrix": [
        1.0,
        0.0,
        0.0,
        0.0,
        0.0,
        0.0,
        1.0,
        0.0,
        0.0,
        -1.0,
        0.0,
        0.0,
        0.0,
        0.0,
        0.0,
        1.0
      ],
      "name": "ed3f22979ba144a1a1500dfbf2271f8c.fbx"
    },
    {
      "children": [
        3,
        6,
        8,
        10,
        12,
        14,
        16,
        18
      ],
      "name": "RootNode"
    },
    {
      "children": [
        4
      ],
      "matrix": [
        -29.08647719990347,
        -5.518906457566863,
        -95.51711910171437,
        0.0,
        56.63930913109449,
        79.46723428563203,
        -21.83912397841966,
        0.0,
        77.11008775993375,
        -60.45246356562044,
        -19.98834696773717,
        0.0,
        407.6245422363281,
        2466.065673828125,
        -100.54539489746094,
        1.0
      ],
      "name": "Light"
    },
    {
      "children": [
        5
      ],
      "matrix": [
        1.0,
        0.0,
        0.0,
        0.0,
        0.0,
        2.220446049250313e-16,
        1.0,
        0.0,
        0.0,
        -1.0,
        2.220446049250313e-16,
        0.0,
        0.0,
        0.0,
        0.0,
        1.0
      ],
      "name": "Object_4"
    },
    {
      "name": "Object_5"
    },
    {
      "children": [
        7
      ],
      "matrix": [
        1.4558913796758333e-05,
        -2.5112210062233173,
        -99.96846387265181,
        0.0,
        1.8283207985775318e-07,
        99.96846387265286,
        -2.5112210062233173,
        0.0,
        99.99999999999893,
        1.8283207985775318e-07,
        1.4558913796758333e-05,
        0.0,
        -11.62576675415039,
        1040.6787109375,
        5992.60009765625,
        1.0
      ],
      "name": "Camera"
    },
    {
      "name": "Object_7"
    },
    {
      "children": [
        9
      ],
      "matrix": [
        43.88516904776747,
        5.735139383663884e-15,
        -93.53127288882483,
        0.0,
        -93.53127288882109,
        -2.9148282130329718e-05,
        -43.88516904776572,
        0.0,
        -2.6387969287150587e-05,
        103.3150634765584,
        -1.238131865271614e-05,
        0.0,
        0.0,
        0.21163225173950195,
        0.0,
        1.0
      ],
      "name": "leaf"
    },
    {
      "mesh": 0,
      "name": "leaf_Material.001_0"
    },
    {
      "children": [
        11
      ],
      "matrix": [
        100.0,
        0.0,
        0.0,
        0.0,
        0.0,
        -1.629206793918314e-05,
        -99.99999999999868,
        0.0,
        0.0,
        99.99999999999868,
        -1.629206793918314e-05,
        0.0,
        0.0,
        0.0,
        0.0,
        1.0
      ],
      "name": "stern"
    },
    {
      "mesh": 1,
      "name": "stern_Material.001_0"
    },
    {
      "children": [
        13
      ],
      "matrix": [
        43.88516904776747,
        5.735139383663884e-15,
        -93.53127288882483,
        0.0,
        -93.53127288882109,
        -2.9148282130329718e-05,
        -43.88516904776572,
        0.0,
        -2.6387969287150587e-05,
        103.3150634765584,
        -1.238131865271614e-05,
        0.0,
        1000.0,
        0.21163225173950195,
        0.0,
        1.0
      ],
      "name": "leaf.001"
    },
    {
      "mesh": 2,
      "name": "leaf.001_Material.001_0"
    },
    {
      "children": [
        15
      ],
      "matrix": [
        100.0,
        0.0,
        0.0,
        0.0,
        0.0,
        -1.629206793918314e-05,
        -99.99999999999868,
        0.0,
        0.0,
        99.99999999999868,
        -1.629206793918314e-05,
        0.0,
        1000.0,
        0.0,
        0.0,
        1.0
      ],
      "name": "stern.001"
    },
    {
      "mesh": 3,
      "name": "stern.001_Material.001_0"
    },
    {
      "children": [
        17
      ],
      "matrix": [
        43.88516904776747,
        5.735139383663884e-15,
        -93.53127288882483,
        0.0,
        -93.53127288882109,
        -2.9148282130329718e-05,
        -43.88516904776572,
        0.0,
        -2.6387969287150587e-05,
        103.3150634765584,
        -1.238131865271614e-05,
        0.0,
        -1000.0,
        0.21163225173950195,
        0.0,
        1.0
      ],
      "name": "leaf.002"
    },
    {
      "mesh": 4,
      "name": "leaf.002_Material.001_0"
    },
    {
      "children": [
        19
      ],
      "matrix": [
        100.0,
        0.0,
        0.0,
        0.0,
        -0.0,
        -1.629206793918314e-05,
        -99.99999999999868,
        0.0,
        0.0,
        99.99999999999868,
        -1.629206793918314e-05,
        0.0,
        -1000.0,
        0.0,
        0.0,
        1.0
      ],
      "name": "stern.002"
    },
    {
      "mesh": 5,
      "name": "stern.002_Material.001_0"
    }
  ],
  "scene": 0,
  "scenes": [
    {
      "name": "Sketchfab_Scene",
      "nodes": [
        0
      ]
    }
  ]
}
